HIERARCHY
ROOT Hips
{
    OFFSET 0.000000 0.000000 0.000000
    CHANNELS 6 Xposition Yposition Zposition Zrotation Xrotation Yrotation
    JOINT Spine
    {
        OFFSET -0.000000 14.517291 0.000000
        CHANNELS 3 Zrotation Xrotation Yrotation
        JOINT Spine1
        {
            OFFSET -0.000000 37.558300 0.000000
            CHANNELS 3 Zrotation Xrotation Yrotation
            JOINT Neck
            {
                OFFSET -0.000000 37.404057 3.400369
                CHANNELS 3 Zrotation Xrotation Yrotation
                JOINT Head
                {
                    OFFSET -0.000000 24.785618 -3.540803
                    CHANNELS 3 Zrotation Xrotation Yrotation
                    End Site
                    {
                        OFFSET -0.000000 35.408028 0.000000
                    }
                }
            }
            JOINT LeftShoulder
            {
                OFFSET 6.992933 33.973492 -0.192664
                CHANNELS 3 Zrotation Xrotation Yrotation
                JOINT LeftArm
                {
                    OFFSET 21.527611 0.000000 0.000000
                    CHANNELS 3 Zrotation Xrotation Yrotation
                    JOINT LeftForeArm
                    {
                        OFFSET 56.353916 0.000000 0.000000
                        CHANNELS 3 Zrotation Xrotation Yrotation
                        JOINT LeftHand
                        {
                            OFFSET 47.774071 0.000000 0.000000
                            CHANNELS 3 Zrotation Xrotation Yrotation
                            End Site
                            {
                                OFFSET 26.556021 0.000000 0.000000
                            }
                        }
                    }
                }
            }
            JOINT RightShoulder
            {
                OFFSET -7.065357 33.973492 -0.192664
                CHANNELS 3 Zrotation Xrotation Yrotation
                JOINT RightArm
                {
                    OFFSET -21.527611 0.000000 0.000000
                    CHANNELS 3 Zrotation Xrotation Yrotation
                    JOINT RightForeArm
                    {
                        OFFSET -56.353916 0.000000 0.000000
                        CHANNELS 3 Zrotation Xrotation Yrotation
                        JOINT RightHand
                        {
                            OFFSET -47.774071 0.000000 0.000000
                            CHANNELS 3 Zrotation Xrotation Yrotation
                            End Site
                            {
                                OFFSET -26.556021 0.000000 0.000000
                            }
                        }
                    }
                }
            }
        }
    }
    JOINT LeftUpLeg
    {
        OFFSET 17.704014 0.000000 0.000000
        CHANNELS 3 Zrotation Xrotation Yrotation
        JOINT LeftLeg
        {
            OFFSET -0.000000 -81.181816 0.000000
            CHANNELS 3 Zrotation Xrotation Yrotation
            JOINT LeftFoot
            {
                OFFSET -0.000000 -62.821102 0.000000
                CHANNELS 3 Zrotation Xrotation Yrotation
                JOINT LeftToeBase
                {
                    OFFSET -0.000000 -11.507608 26.556021
                    CHANNELS 3 Zrotation Xrotation Yrotation
                    End Site
                    {
                        OFFSET -0.000000 0.000000 7.081605
                    }
                }
            }
        }
    }
    JOINT RightUpLeg
    {
        OFFSET -17.704014 0.000000 0.000000
        CHANNELS 3 Zrotation Xrotation Yrotation
        JOINT RightLeg
        {
            OFFSET -0.000000 -81.181816 0.000000
            CHANNELS 3 Zrotation Xrotation Yrotation
            JOINT RightFoot
            {
                OFFSET -0.000000 -62.821102 0.000000
                CHANNELS 3 Zrotation Xrotation Yrotation
                JOINT RightToeBase
                {
                    OFFSET -0.000000 -11.507608 26.556021
                    CHANNELS 3 Zrotation Xrotation Yrotation
                    End Site
                    {
                        OFFSET -0.000000 0.000000 7.081605
                    }
                }
            }
        }
    }
}
MOTION
Frames:    12
Frame Time:    0.008333
20.585617    152.710785    -107.615875    0.275695    -7.926626    37.814262    -2.158507    1.964906    -0.649503    -2.407440    1.905868    -0.188775    1.595634    2.133371    -17.688276    16.899649    7.786642    -17.450367    4.779594    8.084882    -17.791073    -27.227823    23.014574    -53.976818    -3.890237    -8.523584    -109.379463    7.107989    -14.553943    -10.586000    -4.946309    5.224999    0.736056    20.232243    -3.500289    53.362053    15.339631    21.956137    62.295582    -6.132051    11.112031    35.830288    17.204569    -2.489435    1.149856    -16.850554    42.478348    -15.980250    10.997345    -31.001080    46.709454    0.000000    0.000000    0.000000    -19.331179    -17.251591    -13.641931    13.589771    33.507397    -14.142823    6.759402    2.421521    -16.142338    0.000000    0.000000    0.000000    
20.595390    152.711624    -107.603561    0.270160    -7.919136    37.809292    -2.164219    1.953790    -0.653783    -2.399148    1.912960    -0.189912    1.585079    2.127442    -17.693073    16.890524    7.771543    -17.452492    4.765743    8.088672    -17.791027    -27.208818    23.017567    -53.977669    -3.893455    -8.539402    -109.363701    7.188056    -14.576397    -10.534064    -4.962983    5.224799    0.718040    20.241985    -3.530039    53.368401    15.353822    21.922897    62.275959    -6.167790    11.056886    35.891369    17.205055    -2.485388    1.155283    -16.848017    42.468693    -15.979786    10.991836    -31.003859    46.704796    0.000000    0.000000    0.000000    -19.330427    -17.259134    -13.638344    13.586945    33.512123    -14.154937    6.770007    2.417998    -16.131287    0.000000    0.000000    0.000000    
20.604843    152.710236    -107.586983    0.265142    -7.919048    37.812187    -2.167490    1.952327    -0.663462    -2.394022    1.913278    -0.193423    1.583197    2.139145    -17.694105    16.890594    7.731187    -17.447104    4.756495    8.086633    -17.789446    -27.220701    23.005676    -53.959671    -3.914889    -8.491630    -109.335884    7.244044    -14.561821    -10.543052    -4.965413    5.232541    0.700629    20.247652    -3.585244    53.364319    15.570615    21.765436    62.298672    -5.915087    10.844893    35.710251    17.209919    -2.483248    1.160724    -16.838511    42.475311    -15.992125    10.984520    -31.018471    46.700436    0.000000    0.000000    0.000000    -19.326988    -17.255011    -13.639295    13.582878    33.517475    -14.146984    6.782650    2.408209    -16.138494    0.000000    0.000000    0.000000    
20.613453    152.712219    -107.573685    0.260967    -7.914697    37.811947    -2.167013    1.943789    -0.676152    -2.398498    1.921709    -0.197355    1.577819    2.128511    -17.689211    16.880894    7.721940    -17.440710    4.752942    8.083633    -17.783651    -27.238380    22.986746    -53.933117    -3.947409    -8.432795    -109.323006    7.343770    -14.554804    -10.515243    -4.967213    5.224897    0.697405    20.256870    -3.643146    53.368336    15.651572    21.755518    62.251938    -6.018114    10.758335    35.758247    17.211180    -2.480352    1.170480    -16.832664    42.471531    -16.000553    10.976572    -31.022507    46.694733    0.000000    0.000000    0.000000    -19.324928    -17.255257    -13.632901    13.587345    33.516266    -14.172591    6.764495    2.411982    -16.123865    0.000000    0.000000    0.000000    
20.620937    152.713898    -107.555862    0.254267    -7.914113    37.810627    -2.170452    1.942007    -0.681095    -2.390730    1.915805    -0.199353    1.583562    2.125741    -17.690908    16.844486    7.708171    -17.443779    4.751832    8.092840    -17.784775    -27.245777    22.976543    -53.911545    -3.970232    -8.396133    -109.308846    7.375788    -14.550361    -10.494392    -4.974551    5.213018    0.685785    20.258293    -3.684414    53.371937    15.723238    21.747807    62.218853    -6.116389    10.678492    35.808468    17.221310    -2.474275    1.157733    -16.850941    42.459679    -15.982860    10.985291    -31.021639    46.698681    0.000000    0.000000    0.000000    -19.316570    -17.252016    -13.626979    13.582386    33.515713    -14.171915    6.796137    2.399991    -16.124355    0.000000    0.000000    0.000000    
20.628288    152.715179    -107.540344    0.249831    -7.912349    37.811150    -2.175066    1.938766    -0.694904    -2.383623    1.915327    -0.203847    1.561105    2.127786    -17.688339    16.860090    7.695765    -17.435131    4.750860    8.095971    -17.777485    -27.257053    22.970232    -53.885704    -4.011893    -8.351746    -109.298256    7.384371    -14.564547    -10.507250    -4.987212    5.203387    0.678039    20.255222    -3.746765    53.352657    16.179794    21.404520    62.265095    -5.517024    10.226569    35.672203    17.220800    -2.474011    1.158970    -16.844450    42.460800    -15.983995    10.982307    -31.026196    46.713116    0.000000    0.000000    0.000000    -19.314156    -17.251135    -13.617752    13.588114    33.518894    -14.156937    6.808100    2.392531    -16.152367    0.000000    0.000000    0.000000    
20.635996    152.715637    -107.523262    0.246176    -7.910838    37.806164    -2.178081    1.927250    -0.702413    -2.385277    1.927455    -0.206213    1.560026    2.131289    -17.688120    16.853268    7.682708    -17.433241    4.756155    8.088298    -17.784691    -27.269398    22.984489    -53.843674    -4.000945    -8.344171    -109.278557    7.362667    -14.539252    -10.527016    -4.987982    5.196379    0.682189    20.255833    -3.824919    53.360306    16.265665    21.376289    62.242001    -5.624222    10.113114    35.703289    17.224834    -2.468297    1.156786    -16.848728    42.457676    -15.979699    10.983666    -31.021496    46.705166    0.000000    0.000000    0.000000    -19.306549    -17.254032    -13.628471    13.565822    33.530087    -14.148951    6.818585    2.392912    -16.144672    0.000000    0.000000    0.000000    
20.643898    152.717377    -107.507408    0.240531    -7.914365    37.806999    -2.170332    1.924591    -0.718418    -2.386019    1.934123    -0.211271    1.544809    2.130213    -17.685400    16.848619    7.666252    -17.426270    4.744880    8.088279    -17.770884    -27.258242    22.982574    -53.810020    -4.032948    -8.307141    -109.284439    7.325357    -14.544119    -10.529516    -5.007241    5.182654    0.685563    20.253832    -3.882999    53.351482    16.523138    21.057405    62.303009    -5.149906    9.760441    35.643528    17.233236    -2.460728    1.140290    -16.860638    42.449711    -15.968941    10.983725    -31.022751    46.711872    0.000000    0.000000    0.000000    -19.299093    -17.249138    -13.635298    13.557706    33.534367    -14.144251    6.835697    2.394208    -16.146925    0.000000    0.000000    0.000000    
20.653826    152.718048    -107.489929    0.236756    -7.914778    37.802494    -2.165555    1.911960    -0.731909    -2.390397    1.952565    -0.215149    1.537790    2.110723    -17.677021    16.831461    7.670578    -17.418644    4.742059    8.076519    -17.753716    -27.391489    22.835222    -53.719158    -4.177714    -7.979836    -109.278610    7.354359    -14.427967    -10.589093    -5.021380    5.188976    0.685716    20.247112    -3.947934    53.379517    16.485790    20.929710    62.342655    -5.055459    9.671116    35.636597    17.235195    -2.448830    1.145270    -16.847509    42.442974    -15.981070    10.978792    -31.036695    46.714813    0.000000    0.000000    0.000000    -19.295780    -17.248758    -13.622292    13.563811    33.541939    -14.150572    6.839552    2.389867    -16.151175    0.000000    0.000000    0.000000    
20.663748    152.718246    -107.476379    0.238956    -7.920096    37.802052    -2.155181    1.914153    -0.743388    -2.403390    1.961896    -0.218466    1.520254    2.107406    -17.683897    16.838379    7.666887    -17.422585    4.734665    8.069258    -17.747007    -27.368345    22.848896    -53.682457    -4.169132    -7.964081    -109.281662    7.309851    -14.398478    -10.610479    -5.040770    5.197095    0.691402    20.242870    -4.011145    53.386604    16.416445    20.739399    62.425179    -4.971721    9.523718    35.626331    17.233057    -2.434971    1.136095    -16.842625    42.440201    -15.979823    10.987806    -31.033216    46.716587    0.000000    0.000000    0.000000    -19.297869    -17.243740    -13.614074    13.573566    33.550301    -14.162817    6.842288    2.394670    -16.152111    0.000000    0.000000    0.000000    
20.672070    152.718140    -107.462326    0.237408    -7.920766    37.792233    -2.153633    1.914020    -0.750198    -2.403641    1.965967    -0.220576    1.514547    2.096084    -17.679720    16.819975    7.665503    -17.418680    4.727922    8.072193    -17.730175    -27.352093    22.855017    -53.659317    -4.181383    -7.923675    -109.285530    7.304608    -14.378212    -10.650000    -5.061164    5.172758    0.709437    20.237007    -4.060700    53.351341    16.443716    20.396893    62.605881    -4.518895    9.256968    35.561943    17.233364    -2.421629    1.132762    -16.843941    42.431210    -15.979753    10.983689    -31.046345    46.729767    0.000000    0.000000    0.000000    -19.298111    -17.251268    -13.589893    13.585911    33.564625    -14.174594    6.882636    2.392302    -16.176157    0.000000    0.000000    0.000000    
20.682249    152.719360    -107.449791    0.240823    -7.922683    37.784786    -2.144701    1.914074    -0.756702    -2.420892    1.976460    -0.222415    1.504502    2.092991    -17.682854    16.822601    7.654731    -17.418930    4.722686    8.072621    -17.718164    -27.318363    22.861465    -53.638741    -4.195967    -7.895157    -109.296509    7.320737    -14.374917    -10.683862    -5.074411    5.189718    0.713793    20.244751    -4.175208    53.363964    16.315971    20.149967    62.742771    -4.297330    9.120386    35.539734    17.226969    -2.404024    1.138810    -16.829763    42.422165    -15.984268    10.980928    -31.050617    46.727127    0.000000    0.000000    0.000000    -19.305494    -17.255484    -13.576715    13.594611    33.585022    -14.172363    6.903487    2.392210    -16.175510    0.000000    0.000000    0.000000    
